# xmcd
#
# Track frame offsets:
#	150
#	19300
#	36770
#	51272
#	67005
#	83145
#	98845
#	121140
#	137450
#	156640
#	175715
#
# Disc length: 2537 seconds
#
# Revision: 1
# Processed by: cddbd v1.5.1PL0 Copyright (c) Steve Scherf et al.
# Submitted via: CDex 1.50Beta5
#
DISCID=9009e70b
DTITLE=谷口宗一 - 君の中で夢の中で
DYEAR=1994
DGENRE=Rock
TTITLE0=大人の国のアリス
TTITLE1=もう君を呼べない
TTITLE2=優しいだけの人にならないで
TTITLE3=My Revolution
TTITLE4=おはよう
TTITLE5=にじんだ心の色
TTITLE6=くちづけ
TTITLE7=未来地図
TTITLE8=悲しみの向こうで
TTITLE9=君の中で夢の中で
TTITLE10=ガーベラ
EXTD=
EXTT0=
EXTT1=
EXTT2=
EXTT3=
EXTT4=
EXTT5=
EXTT6=
EXTT7=
EXTT8=
EXTT9=
EXTT10=
PLAYORDER=
